# xmcd
#
# Track frame offsets:
#	182
#	10215
#	24297
#	42412
#	60197
#	71835
#	87560
#	100760
#	122032
#	136320
#	150225
#	165182
#	179690
#	195825
#	207240
#
# Disc length: 2903 seconds
#
# Revision: 3
# Processed by: cddbd v1.5.2PL0 Copyright (c) Steve Scherf et al.
# Submitted via: audiograbber 1.83.01
#
DISCID=b80b550f
DTITLE=Various Artist - MM6005
DYEAR=1900
DGENRE=Karaoke
TTITLE0=Connick, Harry Jr. - It Had To Be You
TTITLE1=Fitzgerald, Ella - Cheek To Cheek
TTITLE2=Downey, Robert Jr - Smile
TTITLE3=Connick, Harry Jr. - On The Street Where You Live
TTITLE4=Washington, Dinah - What A Difference A Day Makes
TTITLE5=Carr, Vicki - It Must Be Him
TTITLE6=Sinatra, Frank - My Funny Valentine
TTITLE7=Cole, Natalie - Very Thought Of You, The
TTITLE8=Lawrence, Steve - Lawrence, Steve
TTITLE9=Carr, Vicki - Carr, Vicki
TTITLE10=Sinatra, Frank - Thanks For The Memory
TTITLE11=Howard, Eddy - You'll Never Walk Alone
TTITLE12=Humperdinck, Engelbert - Release Me
TTITLE13=Sinatra, Frank - Makin' Whoopee
TTITLE14=Carr, Vicki - I'll Wait For You
EXTD=
EXTT0=
EXTT1=
EXTT2=
EXTT3=
EXTT4=
EXTT5=
EXTT6=
EXTT7=
EXTT8=
EXTT9=
EXTT10=
EXTT11=
EXTT12=
EXTT13=
EXTT14=
PLAYORDER=
